<?xml version="1.0" standalone="no"?>
<!DOCTYPE svg PUBLIC "-//W3C//DTD SVG 20010904//EN"
 "http://www.w3.org/TR/2001/REC-SVG-20010904/DTD/svg10.dtd">
<svg version="1.0" xmlns="http://www.w3.org/2000/svg"
 width="1200.000000pt" height="1200.000000pt" viewBox="0 0 1200.000000 1200.000000"
 preserveAspectRatio="xMidYMid meet">
<metadata>
Created by potrace 1.11, written by Peter Selinger 2001-2013
</metadata>
<g transform="translate(0.000000,1200.000000) scale(0.100000,-0.100000)"
fill="#000000" stroke="none">
<path d="M4815 11196 c-66 -24 -127 -46 -135 -49 -8 -3 -55 -20 -105 -36 -89
-29 -314 -108 -570 -198 -71 -25 -147 -50 -167 -56 -21 -6 -38 -16 -39 -22 -2
-15 -6 -240 -14 -680 -4 -214 -7 -427 -8 -473 l-2 -82 -40 -37 c-55 -49 -229
-209 -285 -260 -134 -123 -156 -143 -163 -143 -4 0 -29 10 -55 21 -88 40 -244
112 -329 150 -92 41 -131 59 -216 98 -49 23 -90 41 -92 41 -2 0 -39 16 -82 36
-204 95 -338 154 -349 154 -6 0 -50 -51 -97 -112 -47 -62 -211 -276 -365 -476
-154 -199 -288 -374 -298 -389 -11 -14 -30 -39 -43 -55 l-24 -29 429 -430
c236 -237 431 -432 432 -434 2 -2 -32 -72 -76 -157 -44 -84 -128 -248 -188
-364 l-108 -212 -105 -28 c-58 -16 -108 -29 -111 -29 -3 -1 -25 -7 -50 -14
-25 -7 -52 -15 -60 -17 -42 -9 -725 -196 -730 -199 -7 -4 -6 -14 5 -325 4
-107 8 -244 10 -305 15 -478 23 -676 27 -680 2 -2 44 -11 93 -19 50 -9 101
-18 115 -21 14 -3 41 -8 60 -11 19 -2 55 -9 80 -14 74 -15 212 -40 255 -46 22
-3 56 -9 75 -14 19 -5 53 -11 75 -15 38 -5 117 -19 180 -31 17 -3 61 -11 100
-18 l70 -12 72 -174 c41 -96 102 -242 137 -325 35 -82 66 -159 69 -170 6 -19
-45 -89 -161 -220 -15 -17 -47 -55 -72 -85 -25 -30 -47 -57 -50 -60 -3 -3 -30
-34 -60 -70 -30 -35 -65 -76 -77 -90 -230 -267 -432 -514 -426 -523 9 -17 87
-131 93 -137 3 -3 57 -81 119 -175 63 -93 119 -171 123 -173 4 -2 8 -10 8 -17
0 -7 3 -15 8 -17 4 -1 25 -30 47 -63 90 -134 308 -451 319 -462 8 -10 35 -1
116 39 225 109 399 192 495 238 55 26 207 100 339 164 131 64 243 116 250 116
6 0 65 -41 131 -91 153 -115 151 -113 275 -206 58 -43 110 -83 116 -88 8 -7
11 -214 10 -699 -1 -446 3 -693 9 -701 8 -11 66 -34 100 -41 6 -1 143 -46 305
-99 162 -53 376 -124 474 -156 99 -32 185 -59 192 -59 7 0 33 35 59 78 25 42
104 172 174 287 70 116 201 332 291 480 90 149 167 273 172 276 4 3 38 4 75 3
94 -3 530 -15 632 -18 l85 -2 68 -109 c61 -98 112 -180 173 -282 47 -77 289
-471 310 -503 12 -19 50 -80 83 -135 34 -55 65 -106 70 -113 6 -9 45 5 158 57
82 37 172 78 199 91 28 12 88 40 135 62 47 22 139 64 205 94 66 30 176 81 245
112 l125 58 3 611 2 612 63 48 c34 26 69 53 77 60 33 28 433 333 435 333 2 0
83 -39 182 -86 98 -48 223 -108 278 -134 55 -26 168 -80 250 -120 83 -40 196
-94 252 -120 l101 -48 78 101 c143 189 283 371 425 557 77 102 174 229 215
282 41 53 74 101 74 105 0 5 -10 19 -23 33 -12 14 -105 122 -206 240 -265 311
-275 322 -286 334 -10 11 -191 223 -248 291 l-28 34 81 283 c44 156 90 311
101 344 l20 61 67 18 c37 9 106 28 153 41 47 14 95 26 105 29 10 2 127 34 259
70 132 36 274 75 315 86 41 11 104 28 140 39 36 10 90 25 120 34 l55 15 0 633
0 632 -345 98 c-190 54 -361 103 -380 108 -19 6 -127 37 -240 69 l-205 57 -38
60 c-20 32 -40 66 -44 74 -4 8 -51 89 -105 179 -54 91 -98 169 -98 174 0 8 71
108 365 517 85 118 160 223 167 233 7 10 68 95 136 188 73 102 120 175 115
182 -3 7 -54 79 -112 160 -58 82 -113 159 -121 171 -8 13 -58 83 -110 156 -52
73 -113 158 -135 189 -184 262 -220 311 -226 311 -4 0 -160 -66 -346 -146
-186 -81 -437 -189 -557 -241 -120 -52 -224 -92 -230 -90 -6 3 -99 63 -206
133 -107 71 -199 131 -205 134 -5 3 -43 27 -82 53 -60 39 -73 52 -74 75 0 32
1 169 6 472 13 743 13 880 5 881 -13 2 -21 4 -40 12 -8 3 -53 15 -100 27 -47
12 -141 37 -210 56 -69 19 -136 36 -148 39 -13 2 -37 9 -55 15 -30 10 -282 77
-318 85 -9 2 -49 13 -90 24 -70 20 -118 34 -164 46 -16 4 -26 -5 -48 -43 -31
-53 -71 -118 -233 -384 -61 -101 -164 -271 -229 -378 -65 -107 -123 -199 -130
-205 -8 -6 -145 -10 -370 -9 -296 1 -359 3 -366 15 -7 13 -323 492 -348 529
-6 8 -71 107 -145 220 -168 257 -184 280 -193 279 -5 0 -62 -20 -128 -43z
m1575 -1881 c627 -85 1172 -316 1660 -703 112 -89 400 -375 487 -482 409 -508
652 -1083 729 -1730 21 -173 23 -551 5 -710 -89 -770 -398 -1434 -921 -1973
-529 -546 -1204 -883 -1975 -983 -182 -24 -610 -24 -790 -1 -414 55 -784 170
-1129 350 -908 474 -1549 1344 -1730 2347 -40 221 -50 350 -50 610 1 269 14
402 64 650 174 866 683 1617 1431 2110 431 284 946 469 1444 519 61 6 126 13
145 15 79 9 521 -4 630 -19z"/>
<path d="M5847 8970 l-159 -5 -29 -33 c-16 -18 -31 -49 -35 -70 l-6 -38 -70
-11 c-117 -18 -206 -70 -324 -187 -133 -133 -234 -290 -324 -506 -38 -89 -69
-124 -172 -192 l-78 -51 0 -188 0 -188 84 -51 c47 -28 148 -82 225 -120 l139
-70 5 -302 c4 -274 6 -311 26 -383 44 -155 119 -289 231 -409 33 -35 57 -66
53 -70 -3 -3 -19 -6 -33 -6 -53 0 -276 -42 -426 -80 -684 -174 -1144 -564
-1322 -1120 -44 -137 -63 -247 -69 -396 l-6 -130 74 -48 c273 -176 747 -327
1269 -405 541 -80 1244 -94 1840 -35 635 62 1223 223 1565 428 l90 54 -2 113
c-4 261 -98 548 -260 793 -92 140 -290 337 -437 435 -185 123 -398 220 -626
286 -116 33 -311 77 -403 90 l-48 6 84 88 c92 95 153 190 198 305 53 137 60
188 66 496 l6 285 115 55 c64 30 169 86 234 123 l118 68 0 188 0 188 -72 46
c-108 68 -140 106 -197 235 -175 393 -404 625 -649 658 -46 6 -53 10 -58 33
-12 56 -17 67 -37 88 -11 13 -34 25 -51 27 -52 8 -362 12 -529 6z m365 -790
l3 -570 33 -32 c27 -28 40 -33 78 -33 39 0 50 5 75 33 l29 32 0 496 0 497 52
-7 c174 -23 338 -207 497 -556 57 -126 96 -179 177 -242 l54 -43 0 -67 0 -67
-167 -83 c-393 -196 -661 -268 -996 -268 -197 0 -264 8 -437 51 -179 44 -349
110 -555 213 l-180 91 -3 65 c-3 63 -2 66 27 83 44 26 143 128 163 168 10 19
44 92 78 163 138 296 302 470 463 492 l47 7 0 -483 c0 -535 0 -533 65 -564 41
-20 58 -20 95 -1 63 32 60 4 60 627 l0 568 170 0 169 0 3 -570z"/>
</g>
</svg>
